<svg width="115" height="24" viewBox="0 0 115 24" fill="none" xmlns="http://www.w3.org/2000/svg">
<path d="M89.2494 22.9999L102.145 0.695862L115.009 22.9999H89.2494Z" fill="white"/>
<path d="M67.7543 23.1279L58.7623 0.599884H64.2343L70.5063 17.0799H70.6343L76.7143 0.599884H82.1223L73.0983 23.1279H67.7543Z" fill="white"/>
<path d="M32.2318 22.5658V18.5338H48.4878V22.5658H32.2318Z" fill="white"/>
<path d="M32.2318 13.8056V9.77358H48.4878V13.8056H32.2318Z" fill="white"/>
<path d="M32.2318 5.06594V1.03394H48.4878V5.06594H32.2318Z" fill="white"/>
<path d="M0.119499 22.9999V0.599884H8.6315C11.0422 0.599884 13.1435 1.02655 14.9355 1.87988C16.7275 2.71188 18.1248 3.95988 19.1275 5.62388C20.1302 7.28788 20.6315 9.35722 20.6315 11.8319C20.6315 14.1786 20.1302 16.1946 19.1275 17.8799C18.1462 19.5439 16.7382 20.8132 14.9035 21.6879C13.0688 22.5626 10.8928 22.9999 8.3755 22.9999H0.119499ZM5.0795 18.6479H8.5035C10.0608 18.6479 11.3515 18.3919 12.3755 17.8799C13.4208 17.3466 14.2102 16.5786 14.7435 15.5759C15.2768 14.5519 15.5435 13.3039 15.5435 11.8319C15.5435 10.2319 15.2875 8.93055 14.7755 7.92789C14.2635 6.90388 13.4848 6.15722 12.4395 5.68789C11.4155 5.19722 10.1035 4.95189 8.5035 4.95189H5.0795V18.6479Z" fill="white"/>
</svg>
